<svg width="22" height="22" viewBox="0 0 22 22" fill="none" xmlns="http://www.w3.org/2000/svg">
<path d="M12.1067 11L15.448 7.65874C15.5606 7.52722 15.6194 7.35805 15.6128 7.18502C15.6061 7.01199 15.5343 6.84786 15.4119 6.72542C15.2895 6.60298 15.1253 6.53125 14.9523 6.52457C14.7793 6.51788 14.6101 6.57674 14.4786 6.68937L11.1373 9.99624L7.77546 6.63437C7.64394 6.52174 7.47476 6.46288 7.30173 6.46957C7.12871 6.47625 6.96457 6.54798 6.84213 6.67042C6.71969 6.79286 6.64796 6.95699 6.64128 7.13002C6.6346 7.30305 6.69345 7.47222 6.80608 7.60374L10.1611 11L6.87483 14.245C6.80286 14.3066 6.74441 14.3825 6.70315 14.4678C6.66188 14.5531 6.63869 14.646 6.63503 14.7406C6.63138 14.8353 6.64733 14.9297 6.68189 15.018C6.71646 15.1062 6.76889 15.1863 6.83589 15.2533C6.90289 15.3203 6.98301 15.3727 7.07124 15.4073C7.15946 15.4419 7.25388 15.4578 7.34856 15.4542C7.44324 15.4505 7.53614 15.4273 7.62144 15.3861C7.70673 15.3448 7.78258 15.2863 7.84421 15.2144L11.1236 11.935L14.3823 15.1937C14.5139 15.3064 14.683 15.3652 14.8561 15.3585C15.0291 15.3519 15.1932 15.2801 15.3157 15.1577C15.4381 15.0353 15.5098 14.8711 15.5165 14.6981C15.5232 14.5251 15.4643 14.3559 15.3517 14.2244L12.1067 11Z" fill="#FF0000" fill-opacity="0.48"/>
<path d="M11 22C8.82441 22 6.69767 21.3549 4.88873 20.1462C3.07979 18.9375 1.66989 17.2195 0.83733 15.2095C0.00476609 13.1995 -0.213071 10.9878 0.211367 8.85401C0.635804 6.72022 1.68345 4.76021 3.22183 3.22183C4.76021 1.68345 6.72022 0.635804 8.85401 0.211367C10.9878 -0.213071 13.1995 0.00476609 15.2095 0.83733C17.2195 1.66989 18.9375 3.07979 20.1462 4.88873C21.3549 6.69767 22 8.82441 22 11C22 13.9174 20.8411 16.7153 18.7782 18.7782C16.7153 20.8411 13.9174 22 11 22ZM11 1.375C9.09636 1.375 7.23546 1.9395 5.65264 2.99711C4.06982 4.05472 2.83616 5.55794 2.10766 7.31668C1.37917 9.07541 1.18856 11.0107 1.55995 12.8777C1.93133 14.7448 2.84802 16.4598 4.1941 17.8059C5.54018 19.152 7.25519 20.0687 9.12226 20.4401C10.9893 20.8114 12.9246 20.6208 14.6833 19.8923C16.4421 19.1638 17.9453 17.9302 19.0029 16.3474C20.0605 14.7645 20.625 12.9036 20.625 11C20.625 8.44729 19.6109 5.99914 17.8059 4.1941C16.0009 2.38906 13.5527 1.375 11 1.375Z" fill="#FF0000" fill-opacity="0.48"/>
</svg>
