<svg width="24" height="24" viewBox="0 0 24 24" fill="none" xmlns="http://www.w3.org/2000/svg">
<g clip-path="url(#clip0_1_14)">
<path d="M16.3128 19.8747H11.0624C10.9585 19.8747 10.8749 19.7911 10.8749 19.6872C10.8749 19.5833 10.9585 19.4997 11.0624 19.4997H16.3128C16.4167 19.4997 16.5003 19.5833 16.5003 19.6872C16.5003 19.7911 16.4167 19.8747 16.3128 19.8747Z" fill="#3F83F8"/>
<path d="M14.0626 20.2498C14.0447 20.2498 14.0259 20.2474 14.0087 20.2419C13.9701 20.2303 13.9362 20.2066 13.9122 20.1742C13.8881 20.1419 13.8751 20.1026 13.8751 20.0622V19.377C13.5798 19.6302 13.1368 19.9279 12.7571 19.8661C12.6469 19.8482 12.511 19.7943 12.3953 19.6552C12.2519 19.8351 12.1045 20.0117 11.9531 20.1849C11.937 20.2035 11.9174 20.2187 11.8953 20.2296C11.8733 20.2406 11.8494 20.2471 11.8248 20.2488C11.8003 20.2504 11.7757 20.2472 11.7524 20.2394C11.7291 20.2315 11.7075 20.2191 11.689 20.2029C11.6517 20.1702 11.6289 20.124 11.6255 20.0746C11.6221 20.0251 11.6385 19.9762 11.6711 19.9388C11.8578 19.7236 12.0379 19.5026 12.211 19.2763C12.0734 18.7809 12.2305 18.3442 12.4469 18.1363C12.611 17.9793 12.8157 17.9348 13.0071 18.0129C13.0938 18.0481 13.154 18.1176 13.1759 18.2098C13.2306 18.4418 12.9649 18.8934 12.6352 19.3419C12.7055 19.4755 12.7852 19.4896 12.8149 19.495C13.1555 19.5591 13.7806 18.9794 13.9173 18.8184C13.9681 18.7583 14.0525 18.7356 14.1259 18.7622C14.1994 18.7895 14.2494 18.8583 14.2494 18.9372V19.4427L14.6556 18.8333C14.6728 18.8076 14.6961 18.7865 14.7233 18.7719C14.7506 18.7573 14.781 18.7497 14.8119 18.7497H15.562C15.6659 18.7497 15.7495 18.8333 15.7495 18.9372C15.7495 18.9869 15.7297 19.0346 15.6945 19.0698C15.6594 19.1049 15.6117 19.1247 15.562 19.1247H14.9127L14.2181 20.1662C14.201 20.1919 14.1777 20.213 14.1505 20.2276C14.1232 20.2422 14.0936 20.2498 14.0626 20.2498ZM12.8001 18.3535C12.7743 18.359 12.743 18.3739 12.7071 18.4082C12.6204 18.4903 12.5547 18.6403 12.5391 18.8223C12.6735 18.6223 12.7688 18.4543 12.8001 18.3535ZM21.9374 21.7491C21.9064 21.7492 21.876 21.7416 21.8487 21.727C21.8214 21.7124 21.7982 21.6913 21.7811 21.6655L21.0311 20.5404C21.0152 20.5167 21.0049 20.4896 21.0011 20.4613C20.9973 20.433 21.0001 20.4042 21.0092 20.3771L21.3748 19.2809V18.9364C21.3748 18.8325 21.4584 18.7489 21.5623 18.7489C21.6663 18.7489 21.7499 18.8325 21.7499 18.9364V19.3114C21.7499 19.3317 21.7467 19.352 21.7405 19.3708L21.3944 20.4084L22.0936 21.4569C22.1073 21.4774 22.1168 21.5004 22.1215 21.5246C22.1263 21.5488 22.1263 21.5736 22.1214 21.5978C22.1165 21.622 22.107 21.6449 22.0932 21.6654C22.0795 21.6859 22.0618 21.7034 22.0413 21.717C22.0105 21.7374 21.9743 21.7491 21.9374 21.7491Z" fill="#3F83F8"/>
<path d="M21.9374 21.7499C21.9004 21.7499 21.8642 21.739 21.8334 21.7186C21.8129 21.705 21.7953 21.6874 21.7815 21.667C21.7678 21.6465 21.7582 21.6235 21.7533 21.5994C21.7485 21.5752 21.7484 21.5503 21.7532 21.5261C21.758 21.502 21.7674 21.4789 21.7811 21.4584L22.4804 20.4099L22.1343 19.3724C22.128 19.3532 22.1249 19.3331 22.1249 19.313V18.9372C22.1249 18.8333 22.2085 18.7497 22.3124 18.7497C22.3621 18.7497 22.4098 18.7694 22.445 18.8046C22.4801 18.8397 22.4999 18.8874 22.4999 18.9372V19.2817L22.8655 20.3779C22.8746 20.405 22.8774 20.4338 22.8736 20.4621C22.8698 20.4904 22.8596 20.5175 22.8437 20.5412L22.0936 21.6663C22.0765 21.692 22.0533 21.7132 22.026 21.7278C21.9988 21.7424 21.9683 21.75 21.9374 21.7499ZM22.6874 16.1245H21.1873C21.0834 16.1245 20.9998 16.0409 20.9998 15.937C20.9998 15.8331 21.0834 15.7495 21.1873 15.7495H22.6874C22.7913 15.7495 22.8749 15.8331 22.8749 15.937C22.8749 15.9867 22.8552 16.0344 22.82 16.0696C22.7848 16.1047 22.7371 16.1245 22.6874 16.1245Z" fill="#3F83F8"/>
<path d="M21.1873 16.1253C21.1388 16.1253 21.0921 16.1065 21.0572 16.0729C21.0222 16.0392 21.0016 15.9933 20.9998 15.9448L20.6248 6.56996C20.6231 6.52028 20.6411 6.47194 20.6749 6.43549C20.7087 6.39905 20.7556 6.37745 20.8053 6.37542C20.906 6.36995 20.9959 6.45199 20.9998 6.5559L21.3748 15.9307C21.3765 15.9804 21.3585 16.0287 21.3247 16.0652C21.2909 16.1016 21.244 16.1232 21.1943 16.1253H21.1873ZM22.6874 16.1253H22.6804C22.6307 16.1232 22.5839 16.1016 22.55 16.0652C22.5162 16.0287 22.4982 15.9804 22.4999 15.9307L22.8749 6.5559C22.8796 6.45199 22.964 6.36995 23.0695 6.37542C23.1191 6.37745 23.166 6.39905 23.1998 6.43549C23.2336 6.47194 23.2516 6.52028 23.25 6.56996L22.8749 15.9448C22.8731 15.9933 22.8526 16.0392 22.8176 16.0729C22.7826 16.1065 22.736 16.1253 22.6874 16.1253Z" fill="#3F83F8"/>
<path d="M23.0624 6.74966C22.9585 6.74966 22.8749 6.66606 22.8749 6.56214C22.8749 5.69099 22.5593 5.24956 21.9374 5.24956C21.3154 5.24956 20.9998 5.69099 20.9998 6.56214C20.9998 6.66606 20.9162 6.74966 20.8123 6.74966C20.7084 6.74966 20.6248 6.66606 20.6248 6.56214C20.6248 5.4902 21.1029 4.87453 21.9374 4.87453C22.7718 4.87453 23.25 5.48942 23.25 6.56214C23.25 6.66606 23.1663 6.74966 23.0624 6.74966Z" fill="#3F83F8"/>
<path d="M22.3124 5.25034H21.5623C21.4584 5.25034 21.3748 5.16675 21.3748 5.06283C21.3748 4.95892 21.4584 4.87532 21.5623 4.87532H22.3124C22.3621 4.87532 22.4098 4.89508 22.445 4.93024C22.4801 4.96541 22.4999 5.0131 22.4999 5.06283C22.4999 5.16675 22.4163 5.25034 22.3124 5.25034ZM21.9374 11.625C21.8876 11.625 21.8399 11.6052 21.8048 11.5701C21.7696 11.5349 21.7499 11.4872 21.7499 11.4375V5.8121C21.7499 5.70819 21.8335 5.62459 21.9374 5.62459C22.0413 5.62459 22.1249 5.70819 22.1249 5.8121V11.4375C22.1249 11.4872 22.1051 11.5349 22.07 11.5701C22.0348 11.6052 21.9871 11.625 21.9374 11.625ZM22.6874 16.8753H21.1873C21.0834 16.8753 20.9998 16.7917 20.9998 16.6878C20.9998 16.5839 21.0834 16.5003 21.1873 16.5003H22.6874C22.7913 16.5003 22.8749 16.5839 22.8749 16.6878C22.8749 16.7917 22.7913 16.8753 22.6874 16.8753Z" fill="#3F83F8"/>
<path d="M22.6874 16.8753C22.5835 16.8753 22.4999 16.7917 22.4999 16.6878V15.9378C22.4999 15.8338 22.5835 15.7502 22.6874 15.7502C22.7913 15.7502 22.8749 15.8338 22.8749 15.9378V16.6878C22.8749 16.7917 22.7913 16.8753 22.6874 16.8753ZM21.1873 16.8753C21.0834 16.8753 20.9998 16.7917 20.9998 16.6878V15.9378C20.9998 15.8338 21.0834 15.7502 21.1873 15.7502C21.2912 15.7502 21.3748 15.8338 21.3748 15.9378V16.6878C21.3748 16.7917 21.2912 16.8753 21.1873 16.8753ZM22.6874 19.1255H21.1873C21.0834 19.1255 20.9998 19.0419 20.9998 18.938C20.9998 18.834 21.0834 18.7504 21.1873 18.7504H22.6874C22.7913 18.7504 22.8749 18.834 22.8749 18.938C22.8749 18.9877 22.8552 19.0354 22.82 19.0705C22.7848 19.1057 22.7371 19.1255 22.6874 19.1255Z" fill="#3F83F8"/>
<path d="M22.6874 19.1247C22.5835 19.1247 22.4999 19.0411 22.4999 18.9372V16.687C22.4999 16.5831 22.5835 16.4995 22.6874 16.4995C22.7913 16.4995 22.8749 16.5831 22.8749 16.687V18.9372C22.8749 18.9869 22.8552 19.0346 22.82 19.0698C22.7848 19.1049 22.7371 19.1247 22.6874 19.1247ZM21.1873 19.1247C21.0834 19.1247 20.9998 19.0411 20.9998 18.9372V16.687C20.9998 16.5831 21.0834 16.4995 21.1873 16.4995C21.2912 16.4995 21.3748 16.5831 21.3748 16.687V18.9372C21.3748 18.9869 21.3551 19.0346 21.3199 19.0698C21.2847 19.1049 21.237 19.1247 21.1873 19.1247ZM18.5621 22.4999C18.4582 22.4999 18.3746 22.4163 18.3746 22.3124V2.43766C18.3746 2.33374 18.4582 2.25014 18.5621 2.25014C18.6661 2.25014 18.7497 2.33374 18.7497 2.43766V22.3124C18.7497 22.3621 18.7299 22.4098 18.6947 22.445C18.6596 22.4801 18.6119 22.4999 18.5621 22.4999Z" fill="#3F83F8"/>
<path d="M18.5621 22.4999H2.43766C2.33374 22.4999 2.25014 22.4163 2.25014 22.3124C2.25014 22.2085 2.33374 22.1249 2.43766 22.1249H18.5629C18.6668 22.1249 18.7504 22.2085 18.7504 22.3124C18.7504 22.4163 18.6661 22.4999 18.5621 22.4999Z" fill="#3F83F8"/>
<path d="M2.43766 22.4999C2.33374 22.4999 2.25014 22.4163 2.25014 22.3124V0.187512C2.25014 0.0835992 2.33374 0 2.43766 0C2.54157 0 2.62517 0.0835992 2.62517 0.187512V22.3124C2.62517 22.3621 2.60541 22.4098 2.57025 22.445C2.53508 22.4801 2.48739 22.4999 2.43766 22.4999Z" fill="#3F83F8"/>
<path d="M16.3128 0.375024H2.43766C2.33374 0.375024 2.25014 0.291425 2.25014 0.187512C2.25014 0.0835992 2.33374 0 2.43766 0H16.3128C16.3625 0 16.4102 0.0197557 16.4454 0.0549211C16.4805 0.0900864 16.5003 0.137781 16.5003 0.187512C16.5003 0.291425 16.4167 0.375024 16.3128 0.375024Z" fill="#3F83F8"/>
<path d="M18.5621 2.62518C18.5375 2.62528 18.5131 2.6205 18.4903 2.61111C18.4675 2.60172 18.4468 2.58792 18.4293 2.57048L16.18 0.320337C16.1476 0.284668 16.1303 0.237936 16.1315 0.189817C16.1326 0.141698 16.1523 0.0958767 16.1863 0.061841C16.2204 0.0278053 16.2662 0.00816148 16.3143 0.00697673C16.3624 0.00579198 16.4092 0.023157 16.4448 0.0554765L18.695 2.30562C18.7213 2.33185 18.7392 2.3653 18.7465 2.40174C18.7538 2.43817 18.7501 2.47594 18.7358 2.51026C18.7216 2.54458 18.6975 2.5739 18.6666 2.5945C18.6356 2.6151 18.5993 2.62527 18.5621 2.62518ZM15.937 3.0002C15.9124 3.0002 15.888 2.99535 15.8652 2.98593C15.8425 2.9765 15.8218 2.96269 15.8044 2.94528C15.787 2.92787 15.7732 2.9072 15.7637 2.88444C15.7543 2.86169 15.7495 2.83731 15.7495 2.81269V0.937565C15.7495 0.833652 15.8331 0.750053 15.937 0.750053C16.0409 0.750053 16.1245 0.833652 16.1245 0.937565V2.81269C16.1245 2.9166 16.0409 3.0002 15.937 3.0002Z" fill="#3F83F8"/>
<path d="M17.8121 3.00019H15.937C15.9124 3.00019 15.888 2.99534 15.8652 2.98592C15.8425 2.9765 15.8218 2.96268 15.8044 2.94527C15.787 2.92786 15.7732 2.90719 15.7637 2.88444C15.7543 2.86169 15.7495 2.8373 15.7495 2.81268C15.7495 2.70877 15.8331 2.62517 15.937 2.62517H17.8121C17.8367 2.62517 17.8611 2.63002 17.8839 2.63944C17.9066 2.64886 17.9273 2.66268 17.9447 2.68009C17.9621 2.6975 17.9759 2.71817 17.9853 2.74092C17.9948 2.76367 17.9996 2.78806 17.9996 2.81268C17.9996 2.91659 17.916 3.00019 17.8121 3.00019ZM16.312 10.1249H4.68702C4.58311 10.1249 4.49951 10.0413 4.49951 9.93736C4.49951 9.83345 4.58311 9.74985 4.68702 9.74985H16.312C16.3617 9.74985 16.4094 9.76961 16.4446 9.80477C16.4798 9.83994 16.4995 9.88763 16.4995 9.93736C16.4995 10.0413 16.4159 10.1249 16.312 10.1249ZM16.312 11.625H4.68702C4.58311 11.625 4.49951 11.5414 4.49951 11.4375C4.49951 11.3335 4.58311 11.2499 4.68702 11.2499H16.312C16.3617 11.2499 16.4094 11.2697 16.4446 11.3049C16.4798 11.34 16.4995 11.3877 16.4995 11.4375C16.4995 11.5414 16.4159 11.625 16.312 11.625Z" fill="#3F83F8"/>
<path d="M16.3128 13.1251H4.68702C4.58311 13.1251 4.49951 13.0415 4.49951 12.9376C4.49951 12.8336 4.58311 12.75 4.68702 12.75H16.312C16.3617 12.75 16.4094 12.7698 16.4446 12.805C16.4798 12.8401 16.4995 12.8878 16.4995 12.9376C16.4995 12.9873 16.4798 13.035 16.4446 13.0701C16.4094 13.1053 16.3625 13.1251 16.3128 13.1251Z" fill="#3F83F8"/>
<path d="M16.3128 14.6252H4.68702C4.58311 14.6252 4.49951 14.5416 4.49951 14.4377C4.49951 14.3338 4.58311 14.2502 4.68702 14.2502H16.312C16.3617 14.2502 16.4094 14.2699 16.4446 14.3051C16.4798 14.3402 16.4995 14.3879 16.4995 14.4377C16.4995 14.4874 16.4798 14.5351 16.4446 14.5703C16.4094 14.6054 16.3625 14.6252 16.3128 14.6252Z" fill="#3F83F8"/>
<path d="M10.6874 16.1253H4.68702C4.58311 16.1253 4.49951 16.0417 4.49951 15.9378C4.49951 15.8338 4.58311 15.7502 4.68702 15.7502H10.6874C10.7913 15.7502 10.8749 15.8338 10.8749 15.9378C10.8749 16.0417 10.7913 16.1253 10.6874 16.1253Z" fill="#3F83F8"/>
<path d="M6.74966 7.49971C5.50895 7.49971 4.49951 6.49026 4.49951 5.24956C4.49951 4.00885 5.50895 2.99941 6.74966 2.99941C7.99036 2.99941 8.99981 4.00885 8.99981 5.24956C8.99981 6.49026 7.99036 7.49971 6.74966 7.49971ZM6.74966 3.37444C5.716 3.37444 4.87454 4.2159 4.87454 5.24956C4.87454 6.28322 5.716 7.12468 6.74966 7.12468C7.78332 7.12468 8.62478 6.28322 8.62478 5.24956C8.62478 4.2159 7.78332 3.37444 6.74966 3.37444Z" fill="#3F83F8"/>
<path d="M6.18712 6.74966C6.14997 6.74975 6.11362 6.7388 6.0827 6.7182C6.05178 6.69761 6.02768 6.66829 6.01344 6.63397C5.99921 6.59965 5.9955 6.56187 6.00277 6.52544C6.01005 6.489 6.02798 6.45555 6.0543 6.42933L7.36688 5.11674C7.40255 5.08442 7.44928 5.06706 7.4974 5.06824C7.54552 5.06943 7.59134 5.08907 7.62538 5.1231C7.65942 5.15714 7.67906 5.20296 7.68024 5.25108C7.68143 5.2992 7.66406 5.34593 7.63174 5.3816L6.31916 6.69419C6.30173 6.71162 6.28101 6.72543 6.25822 6.73481C6.23542 6.7442 6.21099 6.74898 6.18634 6.74888L6.18712 6.74966Z" fill="#3F83F8"/>
<path d="M8.06224 5.99961C8.03759 5.99971 8.01316 5.99493 7.99036 5.98554C7.96757 5.97616 7.94685 5.96235 7.92942 5.94492L7.36689 5.38238C7.33457 5.34671 7.3172 5.29998 7.31839 5.25186C7.31957 5.20374 7.33921 5.15792 7.37325 5.12388C7.40729 5.08985 7.45311 5.0702 7.50123 5.06902C7.54934 5.06783 7.59608 5.0852 7.63175 5.11752L8.19428 5.68006C8.2206 5.70628 8.23853 5.73973 8.24581 5.77617C8.25308 5.8126 8.24937 5.85038 8.23514 5.8847C8.22091 5.91902 8.1968 5.94834 8.16588 5.96893C8.13496 5.98953 8.09862 6.00048 8.06146 6.00039L8.06224 5.99961Z" fill="#3F83F8"/>
<path d="M5.43707 5.99961C5.39992 5.9997 5.36358 5.98875 5.33266 5.96816C5.30173 5.94756 5.27763 5.91824 5.2634 5.88392C5.24917 5.8496 5.24545 5.81182 5.25273 5.77539C5.26 5.73895 5.27793 5.7055 5.30425 5.67928L5.67928 5.30425C5.69633 5.28543 5.71703 5.27027 5.74013 5.25969C5.76322 5.24911 5.78822 5.24333 5.81362 5.2427C5.83901 5.24208 5.86427 5.24662 5.88785 5.25605C5.91144 5.26548 5.93286 5.2796 5.95082 5.29757C5.96878 5.31553 5.98291 5.33695 5.99234 5.36054C6.00177 5.38412 6.00631 5.40938 6.00569 5.43477C6.00506 5.46017 5.99928 5.48517 5.9887 5.50826C5.97812 5.53135 5.96296 5.55206 5.94414 5.56911L5.56911 5.94414C5.55168 5.96157 5.53097 5.97538 5.50817 5.98477C5.48537 5.99415 5.46095 5.99893 5.43629 5.99883L5.43707 5.99961Z" fill="#3F83F8"/>
<path d="M6.18712 5.99961C6.16247 5.99971 6.13804 5.99493 6.11524 5.98554C6.09244 5.97616 6.07173 5.96235 6.0543 5.94492L5.67927 5.56989C5.66045 5.55284 5.64529 5.53213 5.63471 5.50904C5.62413 5.48595 5.61835 5.46094 5.61772 5.43555C5.6171 5.41016 5.62164 5.3849 5.63107 5.36132C5.6405 5.33773 5.65463 5.31631 5.67259 5.29834C5.69055 5.28038 5.71197 5.26626 5.73556 5.25683C5.75915 5.2474 5.7844 5.24286 5.8098 5.24348C5.83519 5.24411 5.86019 5.24988 5.88328 5.26046C5.90638 5.27104 5.92708 5.28621 5.94414 5.30503L6.31916 5.68005C6.34548 5.70628 6.36341 5.73973 6.37068 5.77617C6.37796 5.8126 6.37424 5.85038 6.36001 5.8847C6.34578 5.91902 6.32168 5.94834 6.29076 5.96893C6.25984 5.98953 6.22349 6.00048 6.18634 6.00039L6.18712 5.99961Z" fill="#3F83F8"/>
<path d="M6.18712 4.87532C5.87695 4.87532 5.62459 4.62296 5.62459 4.31278C5.62459 4.0026 5.87695 3.75024 6.18712 3.75024C6.4973 3.75024 6.74966 4.0026 6.74966 4.31278C6.74966 4.62296 6.4973 4.87532 6.18712 4.87532ZM6.18712 4.12527C6.08399 4.12527 5.99961 4.20965 5.99961 4.31278C5.99961 4.41591 6.08399 4.50029 6.18712 4.50029C6.29026 4.50029 6.37464 4.41591 6.37464 4.31278C6.37464 4.20965 6.29026 4.12527 6.18712 4.12527Z" fill="#3F83F8"/>
<path d="M1.68761 23.2499C1.5837 23.2499 1.5001 23.1663 1.5001 23.0624V0.937558C1.5001 0.833645 1.5837 0.750046 1.68761 0.750046C1.79152 0.750046 1.87512 0.833645 1.87512 0.937558V23.0624C1.87512 23.1122 1.85537 23.1599 1.8202 23.195C1.78504 23.2302 1.73734 23.2499 1.68761 23.2499Z" fill="#3F83F8"/>
<path d="M17.8121 23.2499H1.68761C1.5837 23.2499 1.5001 23.1663 1.5001 23.0624C1.5001 23.0127 1.51985 22.965 1.55502 22.9298C1.59019 22.8947 1.63788 22.8749 1.68761 22.8749H17.8129C17.8626 22.8749 17.9103 22.8947 17.9455 22.9298C17.9806 22.965 18.0004 23.0127 18.0004 23.0624C18.0004 23.1663 17.916 23.2499 17.8121 23.2499Z" fill="#3F83F8"/>
<path d="M17.0628 24H0.937558C0.833645 24 0.750046 23.9164 0.750046 23.8125C0.750046 23.7086 0.833645 23.625 0.937558 23.625H17.0628C17.1667 23.625 17.2503 23.7086 17.2503 23.8125C17.2503 23.9164 17.1667 24 17.0628 24Z" fill="#3F83F8"/>
<path d="M0.937558 24C0.833645 24 0.750046 23.9164 0.750046 23.8125V1.68761C0.750046 1.5837 0.833645 1.5001 0.937558 1.5001C1.04147 1.5001 1.12507 1.5837 1.12507 1.68761V23.8125C1.12507 23.8622 1.10531 23.9099 1.07015 23.9451C1.03498 23.9802 0.987289 24 0.937558 24Z" fill="#3F83F8"/>
</g>
<defs>
<clipPath id="clip0_1_14">
<rect width="24" height="24" fill="white"/>
</clipPath>
</defs>
</svg>
