<svg width="24" height="24" viewBox="0 0 24 24" fill="none" xmlns="http://www.w3.org/2000/svg">
<g clip-path="url(#clip0_1_11)">
<path d="M2 5.55V5.24098L1.72361 5.10279C1.0105 4.74623 0.5 3.88101 0.5 3C0.5 1.62614 1.62614 0.5 3 0.5C4.37386 0.5 5.5 1.62614 5.5 3C5.5 3.88101 4.9895 4.74623 4.27639 5.10279L4 5.24098V5.55V23.5H2V5.55Z" fill="#3F83F8" stroke="white"/>
<path d="M22.5182 2.72087C22.9056 2.58249 23.2352 2.44377 23.5 2.32181V13.4004C23.4976 13.4057 23.495 13.4112 23.4923 13.417C23.4617 13.4824 23.4109 13.5817 23.3346 13.7038C23.1821 13.9478 22.9285 14.2819 22.5322 14.6192C21.7479 15.2867 20.3652 16 18 16C16.5297 16 15.745 15.6908 14.859 15.3417C14.811 15.3227 14.7626 15.3036 14.7138 15.2845C13.7206 14.895 12.6068 14.5 10.5 14.5C8.60991 14.5 7.35858 15.3287 6.5892 16.1605C6.55871 16.1934 6.52898 16.2264 6.5 16.2593V6.08685C6.50962 6.06103 6.52195 6.02866 6.53707 5.99043C6.582 5.87675 6.65126 5.71169 6.74646 5.51242C6.93749 5.11261 7.22967 4.582 7.6343 4.05422C8.44709 2.99406 9.66685 2 11.4 2C13.3386 2 14.125 2.35279 14.8139 2.69721C14.8587 2.71963 14.904 2.74253 14.9499 2.76573C15.2722 2.92859 15.6246 3.10674 16.0602 3.24286C16.5661 3.40096 17.1706 3.5 18 3.5C19.8691 3.5 21.4266 3.11072 22.5182 2.72087Z" stroke="#3F83F8"/>
</g>
<defs>
<clipPath id="clip0_1_11">
<rect width="24" height="24" fill="white"/>
</clipPath>
</defs>
</svg>
