<svg width="64" height="61" viewBox="0 0 64 61" fill="none" xmlns="http://www.w3.org/2000/svg">
<path d="M41.7391 30.5H45.913V39.101L52.7026 43.4015L50.6157 47.3665L41.7391 41.7545V30.5ZM44.5217 24.4C40.8318 24.4 37.2929 26.0067 34.6837 28.8666C32.0745 31.7266 30.6087 35.6054 30.6087 39.65C30.6087 43.6946 32.0745 47.5734 34.6837 50.4334C37.2929 53.2933 40.8318 54.9 44.5217 54.9C48.2117 54.9 51.7505 53.2933 54.3597 50.4334C56.9689 47.5734 58.4348 43.6946 58.4348 39.65C58.4348 35.6054 56.9689 31.7266 54.3597 28.8666C51.7505 26.0067 48.2117 24.4 44.5217 24.4ZM44.5217 18.3C49.6877 18.3 54.6421 20.5494 58.2949 24.5533C61.9478 28.5572 64 33.9876 64 39.65C64 45.3124 61.9478 50.7428 58.2949 54.7467C54.6421 58.7506 49.6877 61 44.5217 61C36.7583 61 30.0522 55.998 26.9078 48.8H0V39.65C0 31.537 14.8313 27.45 22.2609 27.45C23.9304 27.45 25.9896 27.6635 28.16 28.06C29.9249 25.0631 32.3475 22.5993 35.206 20.8942C38.0644 19.1891 41.2674 18.2972 44.5217 18.3ZM25.0435 39.65C25.0435 37.515 25.3217 35.441 25.8504 33.55C24.6817 33.3365 23.4574 33.245 22.2609 33.245C13.9965 33.245 5.28696 37.698 5.28696 39.65V43.005H25.2939C25.1265 41.8961 25.0428 40.774 25.0435 39.65ZM22.2609 0C25.2128 0 28.0439 1.28535 30.1313 3.5733C32.2186 5.86124 33.3913 8.96436 33.3913 12.2C33.3913 15.4356 32.2186 18.5388 30.1313 20.8267C28.0439 23.1146 25.2128 24.4 22.2609 24.4C19.3089 24.4 16.4778 23.1146 14.3905 20.8267C12.3031 18.5388 11.1304 15.4356 11.1304 12.2C11.1304 8.96436 12.3031 5.86124 14.3905 3.5733C16.4778 1.28535 19.3089 0 22.2609 0ZM22.2609 5.795C20.7111 5.795 19.2248 6.46981 18.1289 7.67098C17.033 8.87215 16.4174 10.5013 16.4174 12.2C16.4174 13.8987 17.033 15.5278 18.1289 16.729C19.2248 17.9302 20.7111 18.605 22.2609 18.605C23.8107 18.605 25.297 17.9302 26.3928 16.729C27.4887 15.5278 28.1043 13.8987 28.1043 12.2C28.1043 10.5013 27.4887 8.87215 26.3928 7.67098C25.297 6.46981 23.8107 5.795 22.2609 5.795Z" fill="#3E3E37" fill-opacity="0.88"/>
</svg>
