<svg width="125" height="121" viewBox="0 0 125 121" fill="none" xmlns="http://www.w3.org/2000/svg">
<g clip-path="url(#clip0_1_47)">
<path d="M62.8611 36.9722C49.3055 36.9722 38.5555 47.4051 38.5555 60.5C38.5555 73.5949 49.3333 84.0278 62.8611 84.0278C76.3889 84.0278 87.1666 73.5949 87.1666 60.5C87.1666 47.4051 76.3889 36.9722 62.8611 36.9722ZM62.8611 77.3056C53.1389 77.3056 45.5 69.9111 45.5 60.5C45.5 51.0889 53.1389 43.6945 62.8611 43.6945C72.5833 43.6945 80.2222 51.0889 80.2222 60.5C80.2222 69.9111 72.5833 77.3056 62.8611 77.3056Z" fill="#3F83F8"/>
<path d="M113.889 49.4218L104.167 46.3833L102.083 41.3551L106.944 32.5893C107.474 31.5544 107.659 30.3862 107.475 29.2452C107.291 28.1041 106.747 27.0462 105.917 26.2167L97.5833 18.15C96.7242 17.3408 95.6262 16.8103 94.4417 16.632C93.2571 16.4538 92.0447 16.6366 90.9722 17.1551L81.9445 21.8607L76.75 19.844L73.6111 10.4329C73.2368 9.3719 72.5355 8.44742 71.6018 7.78398C70.6681 7.12054 69.5468 6.74999 68.3889 6.72223H56.6111C55.4336 6.71055 54.2918 7.113 53.3977 7.85482C52.5037 8.59663 51.9182 9.62738 51.75 10.7556L48.6111 20.1667C46.6409 20.481 44.7535 21.1661 43.0556 22.1833L34.0278 17.4778C32.9554 16.9592 31.7429 16.7764 30.5583 16.9547C29.3738 17.1329 28.2759 17.6634 27.4167 18.4727L19.1111 26.5662C18.2751 27.3979 17.7271 28.4607 17.543 29.6074C17.3588 30.754 17.5477 31.9277 18.0833 32.9658L22.6111 41.382L20.5278 46.7598L10.8056 49.7982C9.71297 50.1529 8.75806 50.8217 8.0682 51.7153C7.37834 52.6088 6.98633 53.6848 6.94446 54.7996V66.2273C6.97862 67.3934 7.40354 68.5171 8.15512 69.4289C8.9067 70.3407 9.94419 70.9913 11.1111 71.2825L20.8333 74.294L22.9167 79.3491L18.0556 88.088C17.5199 89.1261 17.331 90.2998 17.5152 91.4464C17.6993 92.5931 18.2474 93.6559 19.0833 94.4876L27.4167 102.554C28.2759 103.363 29.3738 103.894 30.5583 104.072C31.7429 104.25 32.9554 104.068 34.0278 103.549L43.0556 98.8167L48.2778 100.833L51.4167 110.567C51.7911 111.628 52.4923 112.553 53.426 113.216C54.3597 113.879 55.481 114.25 56.6389 114.278H68.4445C69.5927 114.239 70.7018 113.864 71.6245 113.201C72.5473 112.538 73.2401 111.62 73.6111 110.567L76.75 100.833L81.9445 98.8167L90.9722 103.522C92.0447 104.041 93.2571 104.224 94.4417 104.045C95.6262 103.867 96.7242 103.337 97.5833 102.527L105.917 94.4607C106.753 93.629 107.301 92.5662 107.485 91.4196C107.669 90.2729 107.48 89.0992 106.944 88.0611L102.083 79.3222L104.167 74.294L114.222 71.2556C115.318 70.8932 116.273 70.2144 116.959 69.3105C117.644 68.4067 118.027 67.3213 118.056 66.2005V54.7996C118.019 53.5967 117.599 52.4342 116.853 51.4715C116.107 50.5088 115.072 49.7928 113.889 49.4218ZM111.111 65.2056L98.6111 68.9162L98.2778 70.5833L95.1389 77.6551L94.1111 79.3222L100.361 90.4273L93.4167 97.1496L81.9445 91.0996L80.2222 92.0945C77.9225 93.3886 75.4695 94.4088 72.9167 95.1329L71.1945 95.4556L67.3611 107.556H57.6389L53.8333 95.4556L52.0833 95.1329L44.8056 92.0945L43.0556 91.0996L31.6111 97.1496L24.6667 90.4273L30.9167 79.3222L29.8611 77.6551C28.5338 75.4277 27.4892 73.0532 26.75 70.5833L26.3889 68.9162L13.8889 65.2056V55.7945L25.6945 52.4333L26.3889 50.7393C27.0729 48.1531 28.1296 45.6729 29.5278 43.3718L30.5556 41.6778L24.6667 30.5996L31.6111 23.8773L42.7222 29.9273L44.4722 28.9325C46.8494 27.579 49.4116 26.5561 52.0833 25.894L53.8333 25.2218L57.6389 13.4445H67.3611L71.1945 25.2218L72.9445 25.894C75.4973 26.6181 77.9502 27.6383 80.25 28.9325L82 29.9273L93.4722 23.8773L100.417 30.5996L94.1667 41.7047L95.1945 43.3987C96.5081 45.6104 97.5432 47.9666 98.2778 50.4167L98.6389 52.1107L111.139 55.8213V65.2325L111.111 65.2056Z" fill="#3F83F8"/>
</g>
<defs>
<clipPath id="clip0_1_47">
<rect width="125" height="121" fill="white"/>
</clipPath>
</defs>
</svg>
