<svg width="34" height="49" viewBox="0 0 34 49" fill="none" xmlns="http://www.w3.org/2000/svg">
<path d="M31.906 21.0911L31.8466 21.0921C30.5144 21.1399 28.8624 21.1883 27.1962 21.2365C25.6397 21.2821 24.0709 21.3286 22.7377 21.3748C23.5048 17.9993 24.9924 14.6453 26.4337 11.3943C27.7385 8.45307 29.0869 5.41127 29.8839 2.38676L29.9002 2.32737C29.9078 2.30097 29.9149 2.27428 29.922 2.24939C30.2139 1.86887 30.2774 1.39118 30.0865 0.942385C29.8504 0.387911 29.2691 0 28.6721 0C28.3228 0 27.9908 0.127371 27.7131 0.369016C24.8588 2.84675 22.8114 4.90088 21.0868 7.0141C16.1199 12.6722 10.3821 18.4418 3.54698 24.651C3.51529 24.6794 3.4899 24.7078 3.49539 24.7078C3.0515 25.1038 2.89663 25.7887 3.11918 26.3735C3.33163 26.9325 3.82512 27.2665 4.43838 27.2665C7.13336 27.2665 9.99061 27.2722 12.8766 27.3336C9.11361 34.9107 5.41846 40.7272 1.2819 45.5898C0.97187 45.9543 0.858696 46.4032 0.959473 46.8581C1.04275 47.6195 1.63112 48.21 2.31526 48.21C2.5924 48.21 2.87064 48.112 3.11968 47.9267C12.9788 40.5855 23.3805 32.6769 32.6497 23.8156C32.7162 23.7524 32.7762 23.6841 32.831 23.6087C33.2534 23.2044 33.4026 22.5422 33.1904 21.9717C32.9865 21.4201 32.5062 21.0911 31.906 21.0911ZM16.4507 26.6258C16.6772 26.1536 16.6498 25.6339 16.3759 25.1982C16.093 24.7496 15.5841 24.459 15.0788 24.459C15.0107 24.459 14.943 24.4641 14.8769 24.4742C12.5171 24.4004 10.2065 24.376 8.14523 24.3661C13.5881 19.3053 18.294 14.5267 22.5048 9.78807C22.6108 9.70968 22.7017 9.6218 22.7809 9.52103C22.8703 9.40605 22.9632 9.29358 23.055 9.1824L23.3435 8.84498C23.3948 8.7884 23.4353 8.72951 23.4739 8.67032C23.9765 8.06866 24.5101 7.4684 25.0828 6.86163C24.6427 7.95499 24.1817 9.05074 23.7288 10.1248C22.081 14.0401 20.3761 18.0881 19.5993 22.2033C19.5891 22.2592 19.5831 22.3137 19.5785 22.3663C19.408 22.8179 19.4526 23.3447 19.7018 23.7381C19.949 24.127 20.3678 24.3501 20.8522 24.3501L20.9136 24.3483C22.1224 24.3037 23.6947 24.2595 25.2599 24.2153C26.2185 24.1879 27.1744 24.1612 28.0431 24.1343C21.6478 30.0069 14.8888 35.3725 9.23019 39.6985C11.6937 35.9022 14.0712 31.5961 16.4507 26.6258Z" fill="#3F83F8"/>
</svg>
