<svg width="140" height="132" viewBox="0 0 140 132" fill="none" xmlns="http://www.w3.org/2000/svg">
<g clip-path="url(#clip0_1_45)">
<path d="M137.59 27.8355C136.115 27.1941 134.366 27.4374 133.138 28.4604L111.084 47.1384L91.1734 27.8788L110.887 6.4123C111.959 5.24493 112.219 3.63618 111.552 2.2213C110.885 0.806429 109.411 -0.0596924 107.79 -0.0596924H106.602C94.4173 -0.0596924 73.3823 0.928244 63.9915 9.9103L62.097 11.6841C52.0782 21.3221 50.2998 37.1271 55.5782 49.1411L5.09087 97.7254C-1.71649 104.233 -1.71649 114.782 5.09087 121.291L11.2532 127.182C14.6568 130.435 19.1193 132.062 23.5818 132.062C28.0421 132.062 32.5045 130.435 35.9061 127.182L87.1373 78.4906C91.9826 80.9594 98.6217 82.5723 104.198 82.5723C113.136 82.5723 121.608 79.1732 128.059 73.0002L129.927 71.2162C140.127 61.4647 139.97 40.6271 140.016 31.4593C140.02 29.9001 139.068 28.4831 137.59 27.8355ZM123.822 65.6143L122.198 67.4024C117.311 72.0782 110.92 74.3179 104.197 74.3179C100.872 74.3179 96.3923 73.728 93.367 72.54C90.6327 71.4697 88.093 69.9248 85.8202 67.9738L29.7414 121.291C28.0964 122.867 25.9089 123.733 23.5813 123.733C21.2536 123.733 19.0641 122.867 17.4169 121.291L11.257 115.403C7.85751 112.153 7.85751 106.866 11.2547 103.616L66.0494 50.9109C64.2119 48.3883 62.9605 45.639 62.2146 42.7927H62.2125C60.1038 34.7511 61.3331 23.6364 67.9569 17.2631L69.8425 15.4687C75.5234 10.0341 90.2759 8.42737 98.4441 7.95299L82.3988 25.4244C80.9638 26.9878 81.0361 29.3432 82.565 30.822L107.931 55.3575C109.469 56.8507 111.956 56.9374 113.612 55.5534L131.469 40.3899C130.937 48.5574 129.255 60.4189 123.821 65.6143H123.822Z" fill="#3F83F8"/>
</g>
<defs>
<clipPath id="clip0_1_45">
<rect width="140" height="132" fill="white"/>
</clipPath>
</defs>
</svg>
