<svg width="37" height="37" viewBox="0 0 37 37" fill="none" xmlns="http://www.w3.org/2000/svg">
<g clip-path="url(#clip0_8_10)">
<path d="M30.8333 33.6083C30.8333 35.3114 25.3111 37 18.5 37C11.6889 37 6.16666 35.3114 6.16666 33.6083C6.16666 31.9053 11.6889 30.8333 18.5 30.8333C25.3111 30.8333 30.8333 31.9053 30.8333 33.6083Z" fill="#77B255"/>
<path d="M6.16666 3.08334H30.8333V33.6083H6.16666V3.08334Z" fill="#77B255"/>
<path d="M18.5 6.16667C25.3115 6.16667 30.8333 4.78621 30.8333 3.08333C30.8333 1.38046 25.3115 0 18.5 0C11.6885 0 6.16666 1.38046 6.16666 3.08333C6.16666 4.78621 11.6885 6.16667 18.5 6.16667Z" fill="#5C913B"/>
<path d="M22.5659 13.1432C22.6594 13.7023 22.236 14.2388 21.6183 14.3108C20.9235 14.392 20.2256 14.4351 19.5268 14.4619V16.4444C19.5268 16.717 19.4185 16.9784 19.2257 17.1712C19.033 17.3639 18.7716 17.4722 18.499 17.4722C18.2264 17.4722 17.965 17.3639 17.7722 17.1712C17.5795 16.9784 17.4712 16.717 17.4712 16.4444V14.4608C16.7723 14.4377 16.0746 14.3873 15.3797 14.3098C14.762 14.2378 14.3396 13.7023 14.4321 13.1422C14.4802 12.8727 14.6298 12.6319 14.85 12.4692C15.0702 12.3065 15.3443 12.2344 15.6161 12.2676C16.2327 12.3395 16.8514 12.3796 17.4702 12.4043V10.2778C17.4702 10.0052 17.5785 9.74378 17.7712 9.55103C17.9639 9.35828 18.2254 9.25 18.498 9.25C18.7705 9.25 19.032 9.35828 19.2247 9.55103C19.4174 9.74378 19.5257 10.0052 19.5257 10.2778V12.4053C20.1452 12.3823 20.7637 12.3367 21.3798 12.2686C21.6519 12.2349 21.9266 12.3067 22.1472 12.4695C22.3679 12.6322 22.5177 12.8733 22.5659 13.1432ZM20.868 31.3822C19.2944 31.5548 17.7066 31.5548 16.133 31.3822C15.8609 31.3503 15.5869 31.4234 15.3668 31.5864C15.1466 31.7495 14.9969 31.9903 14.948 32.2599C14.8545 32.819 15.2831 33.3565 15.908 33.4254C17.6305 33.6145 19.3695 33.6145 21.0921 33.4254C21.718 33.3565 22.1466 32.819 22.052 32.2599C22.0034 31.9904 21.8538 31.7496 21.6339 31.5865C21.4139 31.4234 21.14 31.3504 20.868 31.3822Z" fill="white"/>
<path d="M18.5 5.13889C24.1763 5.13889 28.7778 4.21859 28.7778 3.08333C28.7778 1.94808 24.1763 1.02778 18.5 1.02778C12.8237 1.02778 8.22223 1.94808 8.22223 3.08333C8.22223 4.21859 12.8237 5.13889 18.5 5.13889Z" fill="#CCD6DD"/>
<path d="M14.3889 1.02778V2.56945C14.3889 3.13678 16.2296 3.59722 18.5 3.59722C20.7704 3.59722 22.6111 3.13678 22.6111 2.56945V1.02778H14.3889Z" fill="#99AAB5"/>
<path d="M18.5 2.05556C20.7705 2.05556 22.6111 1.5954 22.6111 1.02778C22.6111 0.460152 20.7705 0 18.5 0C16.2295 0 14.3889 0.460152 14.3889 1.02778C14.3889 1.5954 16.2295 2.05556 18.5 2.05556Z" fill="#CCD6DD"/>
</g>
<defs>
<clipPath id="clip0_8_10">
<rect width="37" height="37" fill="white"/>
</clipPath>
</defs>
</svg>
