<svg width="72" height="64" viewBox="0 0 72 64" fill="none" xmlns="http://www.w3.org/2000/svg">
<path d="M18.4752 59.9584C12.8725 57.1842 8.20559 53.1295 4.95738 48.214C1.70917 43.2985 -0.00232495 37.7008 2.37037e-06 32C2.37037e-06 14.3264 16.1172 0 36 0C55.8828 0 72 14.3264 72 32C72.0023 37.7008 70.2908 43.2985 67.0426 48.214C63.7944 53.1295 59.1275 57.1842 53.5248 59.9584L50.2992 54.2272C55.8107 51.4245 60.1257 47.0814 62.573 41.8734C65.0204 36.6653 65.4628 30.8843 63.8316 25.4296C62.2003 19.975 58.5868 15.1524 53.5532 11.712C48.5195 8.27163 42.3478 6.40638 35.9982 6.40638C29.6486 6.40638 23.4769 8.27163 18.4432 11.712C13.4096 15.1524 9.79606 19.975 8.16482 25.4296C6.53357 30.8843 6.97603 36.6653 9.42336 41.8734C11.8707 47.0814 16.1857 51.4245 21.6972 54.2272L18.4752 59.9584ZM24.9264 48.4896C20.8668 46.3354 17.7145 43.0568 15.9531 39.1567C14.1918 35.2567 13.9186 30.9506 15.1755 26.8993C16.4325 22.8479 19.1502 19.275 22.9116 16.7288C26.6729 14.1826 31.2703 12.8038 35.9982 12.8038C40.7261 12.8038 45.3235 14.1826 49.0848 16.7288C52.8462 19.275 55.5639 22.8479 56.8209 26.8993C58.0778 30.9506 57.8047 35.2567 56.0433 39.1567C54.2819 43.0568 51.1296 46.3354 47.07 48.4896L43.8372 42.7392C46.4429 41.2366 48.4322 39.0254 49.5082 36.4355C50.5843 33.8456 50.6894 31.0158 49.808 28.3684C48.9265 25.7211 47.1057 23.398 44.6172 21.7458C42.1287 20.0937 39.106 19.201 36 19.201C32.894 19.201 29.8713 20.0937 27.3828 21.7458C24.8943 23.398 23.0735 25.7211 22.192 28.3684C21.3106 31.0158 21.4157 33.8456 22.4918 36.4355C23.5678 39.0254 25.5571 41.2366 28.1628 42.7392L24.9264 48.4896ZM36 44.8L46.8 64H25.2L36 44.8Z" fill="#9D9CD7"/>
</svg>
