<svg width="46" height="44" viewBox="0 0 46 44" fill="none" xmlns="http://www.w3.org/2000/svg">
<g clip-path="url(#clip0_16_10)">
<path d="M12.5733 28.4533L11.6533 29.6267L14.1067 31.3867L15.0267 30.2133L12.5733 28.4533ZM30.9733 30.2133L31.8933 31.3867L34.3467 29.6267L33.4267 28.4533L30.9733 30.2133ZM23 41.0667C17.7134 41.0667 12.6432 39.0579 8.905 35.4822C5.16678 31.9065 3.06667 27.0568 3.06667 22H0C0 27.8348 2.42321 33.4305 6.73654 37.5563C11.0499 41.6822 16.9 44 23 44V41.0667ZM42.9333 22C42.9333 24.5039 42.4177 26.9832 41.416 29.2965C40.4143 31.6098 38.946 33.7117 37.095 35.4822C35.244 37.2527 33.0466 38.6571 30.6282 39.6153C28.2097 40.5735 25.6177 41.0667 23 41.0667V44C29.1 44 34.9501 41.6822 39.2635 37.5563C43.5768 33.4305 46 27.8348 46 22H42.9333ZM23 2.93333C25.6177 2.93333 28.2097 3.42651 30.6282 4.3847C33.0466 5.34289 35.244 6.74733 37.095 8.51783C38.946 10.2883 40.4143 12.3902 41.416 14.7035C42.4177 17.0168 42.9333 19.4961 42.9333 22H46C46 16.1652 43.5768 10.5695 39.2635 6.44365C34.9501 2.31785 29.1 0 23 0V2.93333ZM23 0C16.9 0 11.0499 2.31785 6.73654 6.44365C2.42321 10.5695 0 16.1652 0 22H3.06667C3.06667 16.9432 5.16678 12.0935 8.905 8.51783C12.6432 4.94214 17.7134 2.93333 23 2.93333V0ZM12.2667 17.6H15.3333V14.6667H12.2667V17.6ZM30.6667 17.6H33.7333V14.6667H30.6667V17.6ZM33.4267 28.4533C28.2133 21.8035 17.7867 21.8035 12.5733 28.4533L15.0267 30.2133C15.955 29.0293 17.1588 28.0683 18.5428 27.4065C19.9267 26.7446 21.4527 26.4 23 26.4C24.5473 26.4 26.0733 26.7446 27.4572 27.4065C28.8412 28.0683 30.045 29.0293 30.9733 30.2133L33.4267 28.4533Z" fill="#FFD233"/>
</g>
<defs>
<clipPath id="clip0_16_10">
<rect width="46" height="44" fill="white"/>
</clipPath>
</defs>
</svg>
