<svg width="46" height="53" viewBox="0 0 46 53" fill="none" xmlns="http://www.w3.org/2000/svg">
<path d="M29.5 7.58562V14.6214C31.3395 15.4396 33.0295 16.6089 34.492 18.0995C37.56 21.2265 39.25 25.387 39.25 29.8125C39.25 34.238 37.56 38.3952 34.492 41.5255C31.424 44.6525 27.342 46.375 23 46.375C18.658 46.375 14.5792 44.6525 11.508 41.5255C8.43999 38.3985 6.74999 34.238 6.74999 29.8125C6.74999 25.387 8.43999 21.2298 11.508 18.0995C12.9705 16.6089 14.6605 15.4396 16.5 14.6214V7.58562C11.2632 9.17697 6.76332 12.6364 3.82326 17.3313C0.883205 22.0261 -0.300598 27.6428 0.488326 33.1541C1.27725 38.6655 3.98618 43.7032 8.11977 47.3462C12.2534 50.9893 17.5354 52.9941 23 52.9941C28.4646 52.9941 33.7466 50.9893 37.8802 47.3462C42.0138 43.7032 44.7227 38.6655 45.5117 33.1541C46.3006 27.6428 45.1168 22.0261 42.1767 17.3313C39.2367 12.6364 34.7368 9.17697 29.5 7.58562ZM19.75 0H26.25V26.5H19.75V0Z" fill="#E61414"/>
</svg>
