<svg width="21" height="21" viewBox="0 0 21 21" fill="none" xmlns="http://www.w3.org/2000/svg">
<path d="M12.3063 4.20628L12.3062 4.20625L12.3001 4.2125C11.9413 4.57857 11.7403 5.07073 11.7403 5.58333C11.7403 6.09593 11.9413 6.5881 12.3001 6.95417L12.3001 6.9542L12.3063 6.96038L14.0396 8.69372L14.0396 8.69375L14.0458 8.69987C14.4119 9.05869 14.9041 9.25968 15.4167 9.25968C15.9293 9.25968 16.4214 9.05869 16.7875 8.69987L16.7875 8.69991L16.7937 8.69372L19.8639 5.62348C19.9919 6.29869 19.9957 6.99539 19.8712 7.67889C19.6662 8.80381 19.1233 9.83955 18.3147 10.6481C17.5062 11.4566 16.4705 11.9995 15.3456 12.2045C14.2206 12.4095 13.06 12.2667 12.0182 11.7953L11.4668 11.5458L11.0388 11.9738L3.55294 19.4596C3.28606 19.7265 2.92409 19.8764 2.54666 19.8764C2.16923 19.8764 1.80726 19.7265 1.54038 19.4596C1.2735 19.1927 1.12357 18.8308 1.12357 18.4533C1.12357 18.0759 1.2735 17.7139 1.54038 17.4471L9.02621 9.96122L9.45422 9.53321L9.20467 8.98176C8.73327 7.94002 8.59053 6.77935 8.7955 5.65444C9.00046 4.52952 9.54338 3.49378 10.3519 2.68525C11.1604 1.87672 12.1962 1.33379 13.3211 1.12883C14.0046 1.00429 14.7013 1.00812 15.3765 1.13605L12.3171 4.19545L12.3063 4.20628Z" stroke="#47C826" stroke-width="1.75"/>
</svg>
