<svg width="22" height="22" viewBox="0 0 22 22" fill="none" xmlns="http://www.w3.org/2000/svg">
    <mask id="path-1-inside-1_4_13" fill="white">
        <path
            d="M8.83334 14.25V18.5833C8.83334 19.4453 9.17575 20.2719 9.78524 20.8814C10.3947 21.4909 11.2214 21.8333 12.0833 21.8333L16.4167 12.0833V0.166667H4.19667C3.67415 0.16076 3.16709 0.343894 2.76894 0.682326C2.37078 1.02076 2.10835 1.49168 2.03 2.00833L0.535002 11.7583C0.487869 12.0689 0.508814 12.3859 0.596384 12.6876C0.683955 12.9892 0.836058 13.2682 1.04216 13.5052C1.24825 13.7422 1.50342 13.9316 1.78997 14.0602C2.07652 14.1888 2.3876 14.2536 2.70167 14.25H8.83334ZM16.4167 0.166667H19.3092C19.9223 0.155823 20.5181 0.37048 20.9834 0.769887C21.4487 1.16929 21.7511 1.72565 21.8333 2.33333V9.91667C21.7511 10.5244 21.4487 11.0807 20.9834 11.4801C20.5181 11.8795 19.9223 12.0942 19.3092 12.0833H16.4167" />
    </mask>
    <path
        d="M8.83334 14.25H10.5833V12.5H8.83334V14.25ZM12.0833
         21.8333L12.0833 23.5833L13.2206 23.5833L13.6825 
         22.5441L12.0833 21.8333ZM4.19667 0.166667L4.17689 
         1.91655L4.18678 1.91667H4.19667V0.166667ZM2.03 
         2.00833L3.75979 2.27357L3.76022 2.27072L2.03 
         2.00833ZM0.535002 11.7583L-1.19478 
         11.4931L-1.19518 11.4957L0.535002 
         11.7583ZM2.70167 14.25V12.5H2.69176L2.68185 
         12.5001L2.70167 14.25ZM19.3092 0.166667V1.91667H19.3246L19.3401 
         1.91639L19.3092 0.166667ZM21.8333 2.33333H23.5833V2.21551L23.5675 
         2.09876L21.8333 2.33333ZM21.8333 9.91667L23.5675 10.1512L23.5833 
         10.0345V9.91667H21.8333ZM19.3092 12.0833L19.3401 10.3336L19.3246 
         10.3333H19.3092V12.0833ZM7.08334 14.25V18.5833H10.5833V14.25H7.08334ZM7.08334 
         18.5833C7.08334 19.9094 7.61012 21.1812 8.5478 22.1189L11.0227 19.644C10.7414 
         19.3627 10.5833 18.9812 10.5833 18.5833H7.08334ZM8.5478 22.1189C9.48548 23.0566 
         10.7573 23.5833 12.0833 23.5833L12.0833 20.0833C11.6855 20.0833 11.304 19.9253 
         11.0227 19.644L8.5478 22.1189ZM13.6825 22.5441L18.0158 12.7941L14.8175 11.3726L10.4842 
         21.1226L13.6825 22.5441ZM18.1667 12.0833V0.166667H14.6667V12.0833H18.1667ZM16.4167 -1.58333H4.19667V1.91667H16.4167V-1.58333ZM4.21645 
         -1.58322C3.27189 -1.5939 2.3553 -1.26285 1.63555 -0.651067L3.90232 2.01572C3.97889 
         1.95064 4.0764 1.91542 4.17689 1.91655L4.21645 -1.58322ZM1.63555 -0.651067C0.915811 
         -0.0392859 0.441418 0.812004 0.299785 1.74595L3.76022 2.27072C3.77529 2.17137 3.82575 
         2.0808 3.90232 2.01572L1.63555 -0.651067ZM0.300219 1.7431L-1.19478 11.4931L2.26479 12.0236L3.75979 
         2.27357L0.300219 1.7431ZM-1.19518 11.4957C-1.28038 12.0571 -1.24252 12.6302 -1.08422 13.1755L2.27699 
         12.1996C2.26015 12.1416 2.25612 12.0807 2.26519 12.0209L-1.19518 11.4957ZM-1.08422 13.1755C-0.925921 
         13.7207 -0.650965 14.2251 -0.278404 14.6535L2.36272 12.3569C2.32308 12.3113 2.29383 12.2577 2.27699 12.1996L-1.08422 13.1755ZM-0.278404 14.6535C0.0941568 
         15.082 0.555414 15.4243 1.07341 15.6568L2.50653 12.4636C2.45142 12.4389 2.40235 12.4025 2.36272 12.3569L-0.278404 14.6535ZM1.07341 15.6568C1.5914 15.8892 
         2.15375 16.0063 2.72149 15.9999L2.68185 12.5001C2.62146 12.5008 2.56163 12.4883 2.50653 12.4636L1.07341 15.6568ZM2.70167 16H8.83334V12.5H2.70167V16ZM16.4167 
         1.91667H19.3092V-1.58333H16.4167V1.91667ZM19.3401 1.91639C19.5245 1.91313 19.7036 1.97768 19.8435 2.09778L22.1232 
         -0.558007C21.3325 -1.23672 20.3201 -1.60149 19.2782 -1.58306L19.3401 1.91639ZM19.8435 2.09778C19.9835 
         2.21788 20.0744 2.38518 20.0991 2.56791L23.5675 2.09876C23.4279 1.06612 22.9139 0.120706 22.1232 -0.558007L19.8435 2.09778ZM20.0833 2.33333V9.91667H23.5833V2.33333H20.0833ZM20.0991 9.68209C20.0744 9.86482 19.9835 10.0321 19.8435 10.1522L22.1232 12.808C22.9139 12.1293 23.4279 11.1839 23.5675 10.1512L20.0991 9.68209ZM19.8435 10.1522C19.7036 10.2723 19.5245 10.3369 19.3401 10.3336L19.2782 13.8331C20.3201 13.8515 21.3325 13.4867 22.1232 12.808L19.8435 10.1522ZM19.3092 10.3333H16.4167V13.8333H19.3092V10.3333Z"
        fill="#10D223" mask="url(#path-1-inside-1_4_13)" />
</svg>