<svg width="26" height="26" viewBox="0 0 26 26" fill="none" xmlns="http://www.w3.org/2000/svg">
<rect width="26" height="26" fill="#F5F5F5"/>
<path d="M5.41667 12.9167H20.5833C21.2277 12.9167 21.75 13.439 21.75 14.0833V21.6667C21.75 22.311 21.2277 22.8333 20.5833 22.8333H5.41667C4.77233 22.8333 4.25 22.311 4.25 21.6667V14.0833C4.25 13.439 4.77233 12.9167 5.41667 12.9167Z" stroke="#E43B16" stroke-width="2"/>
<mask id="path-2-inside-1_0_1" fill="white">
<path d="M7.58333 11.9167V7.58333C7.58198 6.24005 8.0798 4.94419 8.98015 3.9473C9.8805 2.95042 11.1191 2.32364 12.4556 2.18864C13.7921 2.05365 15.1311 2.42006 16.2126 3.21675C17.2941 4.01345 18.041 5.18358 18.3083 6.5"/>
</mask>
<path d="M7.58333 7.58333L9.58333 7.58333L9.58333 7.58132L7.58333 7.58333ZM9.58333 11.9167V7.58333H5.58333V11.9167H9.58333ZM9.58333 7.58132C9.58248 6.73402 9.89649 5.91663 10.4644 5.28783L7.4959 2.60678C6.26312 3.97174 5.58148 5.74608 5.58333 7.58534L9.58333 7.58132ZM10.4644 5.28783C11.0323 4.65902 11.8136 4.26367 12.6566 4.17852L12.2546 0.198771C10.4247 0.383614 8.72869 1.24182 7.4959 2.60678L10.4644 5.28783ZM12.6566 4.17852C13.4996 4.09337 14.3442 4.32449 15.0264 4.82702L17.3988 1.60649C15.9179 0.515632 14.0846 0.013927 12.2546 0.198771L12.6566 4.17852ZM15.0264 4.82702C15.7086 5.32955 16.1797 6.06763 16.3483 6.89799L20.2683 6.10201C19.9023 4.29953 18.8796 2.69735 17.3988 1.60649L15.0264 4.82702Z" fill="#E43B16" mask="url(#path-2-inside-1_0_1)"/>
</svg>
