<svg width="20" height="22" viewBox="0 0 20 22" fill="none" xmlns="http://www.w3.org/2000/svg">
<path d="M2.16667 10.85H17.3333C17.9224 10.85 18.4 11.3276 18.4 11.9167V19.5C18.4 20.0891 17.9224 20.5667 17.3333 20.5667H2.16667C1.57756 20.5667 1.1 20.0891 1.1 19.5V11.9167C1.1 11.3276 1.57756 10.85 2.16667 10.85Z" stroke="#4BC52C" stroke-width="2.2"/>
<mask id="path-2-inside-1_2_5" fill="white">
<path d="M4.33334 9.75V5.41667C4.33334 3.98008 4.90403 2.60233 5.91985 1.5865C6.93567 0.570683 8.31342 0 9.75001 0C11.1866 0 12.5644 0.570683 13.5802 1.5865C14.596 2.60233 15.1667 3.98008 15.1667 5.41667V9.75"/>
</mask>
<path d="M4.33334 5.41667H2.13334H4.33334ZM9.75001 0L9.75001 -2.2L9.75001 0ZM6.53334 9.75V5.41667H2.13334V9.75H6.53334ZM6.53334 5.41667C6.53334 4.56355 6.87224 3.74538 7.47548 3.14214L4.36421 0.03087C2.93581 1.45927 2.13334 3.3966 2.13334 5.41667L6.53334 5.41667ZM7.47548 3.14214C8.07873 2.5389 8.8969 2.2 9.75001 2.2L9.75001 -2.2C7.72994 -2.2 5.79262 -1.39753 4.36421 0.03087L7.47548 3.14214ZM9.75001 2.2C10.6031 2.2 11.4213 2.5389 12.0245 3.14214L15.1358 0.03087C13.7074 -1.39753 11.7701 -2.2 9.75001 -2.2V2.2ZM12.0245 3.14214C12.6278 3.74538 12.9667 4.56355 12.9667 5.41667H17.3667C17.3667 3.3966 16.5642 1.45927 15.1358 0.03087L12.0245 3.14214ZM12.9667 5.41667V9.75H17.3667V5.41667H12.9667Z" fill="#4BC52C" mask="url(#path-2-inside-1_2_5)"/>
</svg>
