<svg width="26" height="26" viewBox="0 0 26 26" fill="none" xmlns="http://www.w3.org/2000/svg">
<mask id="path-1-inside-1_5_22" fill="white">
<path d="M21.6667 22.75V20.2222C21.6667 18.8814 21.096 17.5955 20.0802 16.6474C19.0643 15.6993 17.6866 15.1667 16.25 15.1667H5.41667C3.98008 15.1667 2.60233 15.6993 1.5865 16.6474C0.570683 17.5955 0 18.8814 0 20.2222V22.75"/>
</mask>
<path d="M16.25 15.1667V12.1667V15.1667ZM5.41667 15.1667L5.41667 12.1667L5.41667 15.1667ZM0 20.2222H-3H0ZM24.6667 22.75V20.2222H18.6667V22.75H24.6667ZM24.6667 20.2222C24.6667 18.0164 23.7259 15.9464 22.1271 14.4542L18.0332 18.8406C18.4661 19.2446 18.6667 19.7465 18.6667 20.2222H24.6667ZM22.1271 14.4542C20.5353 12.9686 18.418 12.1667 16.25 12.1667L16.25 18.1667C16.9552 18.1667 17.5934 18.43 18.0332 18.8406L22.1271 14.4542ZM16.25 12.1667H5.41667V18.1667H16.25V12.1667ZM5.41667 12.1667C3.24865 12.1667 1.13134 12.9686 -0.46045 14.4542L3.63346 18.8406C4.07331 18.43 4.7115 18.1667 5.41667 18.1667L5.41667 12.1667ZM-0.46045 14.4542C-2.05924 15.9464 -3 18.0164 -3 20.2222L3 20.2222C3 19.7465 3.2006 19.2446 3.63346 18.8406L-0.46045 14.4542ZM-3 20.2222V22.75H3V20.2222H-3Z" fill="#2DE840" mask="url(#path-1-inside-1_5_22)"/>
<path d="M14.75 5.05556C14.75 6.92344 13.0956 8.61111 10.8333 8.61111C8.57106 8.61111 6.91667 6.92344 6.91667 5.05556C6.91667 3.18767 8.57106 1.5 10.8333 1.5C13.0956 1.5 14.75 3.18767 14.75 5.05556Z" stroke="#2DE840" stroke-width="3"/>
</svg>
