<svg width="37" height="37" viewBox="0 0 37 37" fill="none" xmlns="http://www.w3.org/2000/svg">
<path d="M17.3283 16.6397C20.9952 16.6397 23.9678 13.6671 23.9678 10.0003C23.9678 6.33342 20.9952 3.36084 17.3283 3.36084C13.6615 3.36084 10.6889 6.33342 10.6889 10.0003C10.6889 13.6671 13.6615 16.6397 17.3283 16.6397Z" fill="#699BF7"/>
<path d="M21.5833 28.7778H28.7778V30.2167H21.5833V28.7778Z" fill="#699BF7"/>
<path d="M15.4167 30.8333V33.9167C15.4167 34.1892 15.525 34.4507 15.7177 34.6434C15.9104 34.8362 16.1719 34.9444 16.4444 34.9444H33.9167C34.1893 34.9444 34.4507 34.8362 34.6434 34.6434C34.8362 34.4507 34.9444 34.1892 34.9444 33.9167V23.6389C34.9444 23.3663 34.8362 23.1049 34.6434 22.9121C34.4507 22.7194 34.1893 22.6111 33.9167 22.6111H26.7222V21.1003C26.7222 20.8277 26.6139 20.5663 26.4212 20.3735C26.2284 20.1808 25.967 20.0725 25.6944 20.0725C25.4219 20.0725 25.1604 20.1808 24.9677 20.3735C24.775 20.5663 24.6667 20.8277 24.6667 21.1003V22.6111H22.6111V18.9317C20.8646 18.6464 19.098 18.5021 17.3283 18.5C13.4257 18.4834 9.56671 19.3218 6.02278 20.9564C5.4395 21.2316 4.94742 21.6684 4.60493 22.215C4.26245 22.7615 4.08393 23.3948 4.09056 24.0397V30.8333H15.4167ZM32.8889 32.8889H17.4722V24.6667H24.6667V25.0983C24.6667 25.3709 24.775 25.6323 24.9677 25.8251C25.1604 26.0178 25.4219 26.1261 25.6944 26.1261C25.967 26.1261 26.2284 26.0178 26.4212 25.8251C26.6139 25.6323 26.7222 25.3709 26.7222 25.0983V24.6667H32.8889V32.8889Z" fill="#699BF7"/>
</svg>
