<svg width="37" height="37" viewBox="0 0 37 37" fill="none" xmlns="http://www.w3.org/2000/svg">
<path d="M14.8023 26.3363C16.2045 25.1137 16.4874 25.5346 16.5128 26.3363" stroke="#699BF7" stroke-width="0.770833" stroke-linecap="round" stroke-linejoin="round"/>
<path d="M11.6743 26.3193C15.3103 22.2509 18.6858 21.8678 18.6958 26.3525" stroke="#699BF7" stroke-width="0.770833" stroke-linecap="round" stroke-linejoin="round"/>
<path d="M8.53004 26.3687C15.6163 17.4039 21.033 20.2043 21.0253 26.3841" stroke="#699BF7" stroke-width="0.770833" stroke-linecap="round" stroke-linejoin="round"/>
<path d="M23.4688 26.3849C24.2435 16.845 14.6651 15.0968 8.3512 22.6872M7.78079 23.4033C7.36454 23.9197 7.14331 24.2396 7.01535 24.5441" stroke="#699BF7" stroke-width="0.770833" stroke-linecap="round" stroke-linejoin="round"/>
<path d="M26.0264 26.4172C26.9707 16.7479 16.9799 11.1524 8.97018 19.2169M18.4892 24.7067L20.7539 24.1363" stroke="#699BF7" stroke-width="0.770833" stroke-linecap="round" stroke-linejoin="round"/>
<path d="M28.4376 26.4172H30.6853C30.6082 20.9366 27.6536 17.3908 22.6702 15.2093C25.0228 16.9961 28.8885 20.1534 28.4376 26.4172ZM5.32106 26.4827L2.69791 26.4496C3.38241 26.2515 4.04919 24.3791 5.49989 24.3159C5.2301 25.0382 5.1561 25.7612 5.32106 26.4827ZM8.44833 18.076C7.41541 19.2076 6.64227 20.4695 6.21677 21.9048C4.97958 21.2496 5.42589 18.8947 4.73446 18.4838C5.43669 18.8476 6.72243 17.2166 8.44833 18.076ZM10.175 16.4149C11.238 15.3003 12.449 14.4416 13.9875 14.1502C13.1134 12.9408 11.0985 13.1481 10.5666 12.6841C10.5789 13.9174 9.90675 15.0652 10.1758 16.4149H10.175ZM16.317 13.5636C17.8409 13.2036 19.3109 13.2406 20.7485 13.5312C20.4279 11.8192 19.2361 11.386 18.5979 10.5173C18.1894 11.2835 16.2738 12.1306 16.317 13.5636ZM26.5321 12.6841C25.0898 13.4086 24.2026 13.0741 23.1751 14.2319C24.6551 14.6158 25.9254 15.3141 26.9715 16.3494C27.3145 15.0667 26.6169 13.8842 26.5321 12.6841ZM28.6326 18.0606C29.7919 19.0974 30.4456 20.4517 30.9143 21.921C31.7013 20.8557 31.7314 19.4712 32.4451 18.5162C31.2234 18.6441 29.9361 17.6097 28.6326 18.0606ZM31.5163 24.2836C31.7566 24.9849 31.8561 25.7267 31.8092 26.4666L34.3021 26.401C33.6954 25.4591 32.7751 24.7476 31.5163 24.2836Z" stroke="#699BF7" stroke-width="0.770833" stroke-linecap="round" stroke-linejoin="round"/>
</svg>
