<svg width="37" height="37" viewBox="0 0 37 37" fill="none" xmlns="http://www.w3.org/2000/svg">
<path d="M18.685 1.11C18.2023 1.16781 3.15656 11.2561 3.06984 11.5625C2.98312 11.8718 2.94844 15.0862 2.94844 15.0862L4.88805 15.7019L4.89672 18.2572L5.93445 20.3818V29.363L5.15976 31.054L3.03516 31.6813V33.2017L1.37016 33.7076C1.37016 33.7076 1.39328 35.0113 1.39328 35.228C1.39328 35.4448 1.46555 35.9045 2.33562 35.9045C3.2057 35.9045 34.9621 35.757 35.283 35.757C35.6038 35.757 35.9362 35.6934 35.9536 35.1182C35.9709 34.543 35.9362 33.7307 35.9362 33.7307L34.3233 32.9329L34.3175 31.6581L31.6928 30.8488L31.0598 29.0566L31.0684 20.613L32.0744 18.4913L32.3779 17.9161V15.6325L34.0689 14.9937C34.0689 14.9937 34.1007 11.6897 34.0516 11.5943C34.0082 11.5018 19.0839 1.06375 18.685 1.11Z" fill="#CDDFEE"/>
<path d="M4.43133 12.2331C4.34172 12.4557 4.31859 14.0976 4.39953 14.1785C4.48047 14.2595 32.4212 14.2161 32.5166 14.138C32.612 14.06 32.6265 12.2765 32.5802 12.1666C32.534 12.0568 24.657 6.67735 24.657 6.67735L12.4788 6.73805C12.4759 6.73805 4.48336 12.1002 4.43133 12.2331ZM1.37016 33.7134C1.34414 33.6498 1.37016 33.3491 1.37016 33.2277C1.37016 33.1063 1.48578 32.9676 1.74594 32.9676C2.00609 32.9676 35.0286 32.9213 35.1905 32.9271C35.598 32.9416 35.8727 33.0283 35.9131 33.2884C35.9536 33.5486 35.9391 33.7365 35.9391 33.7365L1.37016 33.7134ZM34.3204 31.661L3.03805 31.6841C3.03805 31.6841 3.04961 31.3633 3.04961 31.2534C3.04961 31.1436 3.10742 30.9644 3.48031 30.9644C3.8532 30.9644 33.5197 30.8516 33.7741 30.8516C34.0284 30.8516 34.3059 30.9702 34.3406 31.1465C34.3753 31.3228 34.3204 31.661 34.3204 31.661ZM31.2939 29.7243L31.0627 29.0479L5.92867 29.0421L5.74078 29.7966L31.2939 29.7243ZM5.63961 19.7661L31.4413 19.8557L31.0713 20.613L5.93734 20.7084L5.63961 19.7661ZM5.07594 18.7023C5.07594 18.7023 4.84758 18.5376 4.81 18.3208C4.77242 18.104 4.87359 17.9768 4.87359 17.9768L32.3808 17.9161C32.3808 17.9161 32.4848 18.13 32.3952 18.2803C32.3056 18.4335 32.0512 18.5723 32.0512 18.5723L5.07594 18.7023ZM2.94844 15.0862L34.0718 14.9937C34.0718 14.9937 34.092 15.2914 34.0718 15.4157C34.0545 15.54 33.8926 15.6498 33.4792 15.6498H33.0659C33.0659 15.6498 3.93125 15.7944 3.6075 15.7944C3.28375 15.7944 3.0525 15.6152 2.99758 15.4706C2.96578 15.3752 2.94844 15.0862 2.94844 15.0862Z" fill="#94ADBC"/>
<path d="M5.20602 13.0165L11.7533 8.59672L12.1927 13.1032L5.20602 13.0165ZM25.3074 8.4493L31.8634 13.0743H25.1311L25.3074 8.4493Z" fill="#657582"/>
<path d="M9.65758 18.6821L10.7358 18.6792L11.5798 20.7055L11.5018 29.0479L10.7994 30.9384L9.54485 30.9412L8.85399 29.0595L8.82219 20.6882L9.65758 18.6821ZM15.3984 18.6532L14.3259 20.6593L14.4069 29.0479L15.0428 30.9239L22.0468 30.895L22.677 29.0479L22.6943 20.642L21.8763 18.6214L15.3984 18.6532ZM26.4116 18.6012L27.3627 18.5954L28.2038 20.6217L28.2009 29.0508L27.7124 30.8777L26.1255 30.8805L25.6398 29.0508L25.6023 20.6304L26.4116 18.6012Z" fill="#54636E"/>
<path d="M15.7886 30.921V24.4894L21.4311 24.5443L21.4427 30.9037L15.7886 30.921Z" fill="#6BA4AE"/>
<path d="M18.2861 24.1974L18.2832 30.9123L18.8671 30.9094V24.2957L18.2861 24.1974Z" fill="#A5D0D7"/>
<path d="M15.7886 24.7958V23.1828H21.4311V24.7958C21.4311 24.7958 15.8377 24.7466 15.7886 24.7958Z" fill="#95ACBC"/>
<path d="M15.7886 23.1828H21.4311C21.4311 23.1828 21.4542 22.6798 20.931 22.6307C20.4078 22.5816 16.5633 22.622 16.2395 22.6307C15.7568 22.6452 15.7886 23.1828 15.7886 23.1828Z" fill="#CCDEED"/>
<path d="M18.6127 3.21148C14.4242 3.2375 11.1087 6.55015 11.2503 10.7387C11.392 14.9272 15.2336 17.8727 18.6127 17.8467C22.1595 17.8207 25.8942 15.2827 26.0619 10.7155C26.2324 6.15125 22.3879 3.18547 18.6127 3.21148Z" fill="#CDDFEE"/>
<path d="M18.6388 4.21453C15.1324 4.23766 12.3256 7.11383 12.4441 10.7618C12.5598 14.4098 15.647 16.7223 18.4769 16.7483C21.7404 16.7772 24.7438 14.6439 24.8825 10.6693C25.0213 6.69469 21.7982 4.1943 18.6388 4.21453Z" fill="#94ADBC"/>
<path d="M17.627 6.25242C17.627 6.25242 17.5634 5.13664 17.6415 5.04125C17.7195 4.94586 18.0375 4.94586 18.6532 4.94586C19.2718 4.94586 19.5233 4.94586 19.6187 5.02391C19.7141 5.10196 19.6649 6.3218 19.6649 6.3218C19.6649 6.3218 20.5032 6.63688 21.0264 7.04156C21.5814 7.46938 21.9774 8.03883 21.9456 8.13422C21.9138 8.22961 20.8067 9.19508 20.6477 9.16328C20.4888 9.13149 19.5869 8.07641 18.5116 8.00703C16.8032 7.89719 16.8177 9.22688 17.8785 9.5911C18.9394 9.95531 22.2838 10.2444 22.1538 12.9066C22.0439 15.1469 19.7805 15.3059 19.7805 15.3059C19.7805 15.3059 19.8441 16.1441 19.7805 16.1933C19.717 16.2424 17.7224 16.2713 17.6588 16.1788C17.5952 16.0863 17.6444 15.2278 17.6444 15.2278C17.6444 15.2278 16.757 15.0544 16.0285 14.563C15.3001 14.0716 14.7769 13.4241 14.7624 13.3431C14.748 13.2651 16.0459 12.1724 16.1384 12.1406C16.2309 12.1088 17.5519 13.4096 18.7977 13.5166C20.0638 13.6264 20.6015 12.3777 18.844 11.84C17.0865 11.3023 15.0139 10.8427 15.1093 8.64297C15.2047 6.40852 17.627 6.25242 17.627 6.25242Z" fill="#024FAC"/>
</svg>
