<svg width="77" height="70" viewBox="0 0 77 70" fill="none" xmlns="http://www.w3.org/2000/svg">
<path d="M38.5 5.83333C56.2196 5.83333 70.5834 18.8912 70.5834 35C70.5834 51.1087 56.2196 64.1667 38.5 64.1667C20.7804 64.1667 6.41669 51.1087 6.41669 35C6.41669 18.8912 20.7804 5.83333 38.5 5.83333ZM38.5 11.6667C31.6928 11.6667 25.1644 14.125 20.3509 18.5008C15.5375 22.8767 12.8334 28.8116 12.8334 35C12.8334 41.1884 15.5375 47.1233 20.3509 51.4992C25.1644 55.875 31.6928 58.3333 38.5 58.3333C45.3072 58.3333 51.8357 55.875 56.6491 51.4992C61.4625 47.1233 64.1667 41.1884 64.1667 35C64.1667 28.8116 61.4625 22.8767 56.6491 18.5008C51.8357 14.125 45.3072 11.6667 38.5 11.6667ZM38.4679 29.1667C40.2582 29.1667 41.7084 30.485 41.7084 32.1125V47.0575C42.32 47.3785 42.7979 47.8741 43.0682 48.4672C43.3384 49.0604 43.3858 49.7181 43.2031 50.3382C43.0203 50.9584 42.6175 51.5064 42.0572 51.8972C41.4969 52.2881 40.8104 52.5 40.1042 52.5H38.5321C38.1066 52.5 37.6852 52.4238 37.292 52.2758C36.8989 52.1277 36.5417 51.9107 36.2408 51.6372C35.9399 51.3636 35.7012 51.0389 35.5383 50.6815C35.3755 50.3241 35.2917 49.941 35.2917 49.5542V35C34.4408 35 33.6247 34.6927 33.0231 34.1457C32.4214 33.5987 32.0834 32.8569 32.0834 32.0833C32.0834 31.3098 32.4214 30.5679 33.0231 30.0209C33.6247 29.474 34.4408 29.1667 35.2917 29.1667H38.4679ZM38.5 20.4167C39.3509 20.4167 40.167 20.724 40.7687 21.2709C41.3703 21.8179 41.7084 22.5598 41.7084 23.3333C41.7084 24.1069 41.3703 24.8487 40.7687 25.3957C40.167 25.9427 39.3509 26.25 38.5 26.25C37.6491 26.25 36.8331 25.9427 36.2314 25.3957C35.6297 24.8487 35.2917 24.1069 35.2917 23.3333C35.2917 22.5598 35.6297 21.8179 36.2314 21.2709C36.8331 20.724 37.6491 20.4167 38.5 20.4167Z" fill="#699BF7"/>
</svg>
