<svg width="37" height="37" viewBox="0 0 37 37" fill="none" xmlns="http://www.w3.org/2000/svg">
<path d="M32.375 17.9399C33.0977 18.4338 33.742 18.9938 34.3081 19.6201C34.8742 20.2464 35.362 20.9329 35.7715 21.6797C36.181 22.4264 36.4821 23.2153 36.6748 24.0464C36.8675 24.8774 36.9759 25.7266 37 26.5938C37 28.027 36.729 29.376 36.187 30.6406C35.645 31.9053 34.8983 33.0073 33.9468 33.9468C32.9953 34.8862 31.8932 35.627 30.6406 36.1689C29.388 36.7109 28.0391 36.988 26.5938 37C25.4977 37 24.4378 36.8374 23.4141 36.5122C22.3903 36.187 21.4508 35.7173 20.5957 35.103C19.7406 34.4888 18.9818 33.7541 18.3193 32.8989C17.6569 32.0438 17.145 31.0983 16.7837 30.0625H2.3125V2.3125H6.9375V0H9.25V2.3125H25.4375V0H27.75V2.3125H32.375V17.9399ZM4.625 4.625V9.25H30.0625V4.625H27.75V6.9375H25.4375V4.625H9.25V6.9375H6.9375V4.625H4.625ZM16.2417 27.75C16.2056 27.3766 16.1875 26.9912 16.1875 26.5938C16.1875 25.5579 16.332 24.5522 16.6211 23.5767C16.9102 22.6011 17.3498 21.6797 17.9399 20.8125H16.1875V18.5H18.5V20.0537C18.9938 19.4395 19.5418 18.8975 20.144 18.4277C20.7463 17.958 21.3966 17.5545 22.0952 17.2173C22.7938 16.88 23.5225 16.6271 24.2812 16.4585C25.04 16.2899 25.8109 16.1995 26.5938 16.1875C27.7982 16.1875 28.9544 16.3862 30.0625 16.7837V11.5625H4.625V27.75H16.2417ZM26.5938 34.6875C27.7139 34.6875 28.7617 34.4767 29.7373 34.0552C30.7129 33.6336 31.568 33.0555 32.3027 32.3208C33.0374 31.5861 33.6156 30.731 34.0371 29.7554C34.4587 28.7798 34.6755 27.7259 34.6875 26.5938C34.6875 25.4736 34.4767 24.4258 34.0552 23.4502C33.6336 22.4746 33.0555 21.6195 32.3208 20.8848C31.5861 20.1501 30.731 19.5719 29.7554 19.1504C28.7798 18.7288 27.7259 18.512 26.5938 18.5C25.4736 18.5 24.4258 18.7108 23.4502 19.1323C22.4746 19.5539 21.6195 20.132 20.8848 20.8667C20.1501 21.6014 19.5719 22.4565 19.1504 23.4321C18.7288 24.4077 18.512 25.4616 18.5 26.5938C18.5 27.7139 18.7108 28.7617 19.1323 29.7373C19.5539 30.7129 20.132 31.568 20.8667 32.3027C21.6014 33.0374 22.4565 33.6156 23.4321 34.0371C24.4077 34.4587 25.4616 34.6755 26.5938 34.6875ZM27.75 25.4375H31.2188V27.75H25.4375V20.8125H27.75V25.4375ZM6.9375 18.5H9.25V20.8125H6.9375V18.5ZM11.5625 18.5H13.875V20.8125H11.5625V18.5ZM11.5625 13.875H13.875V16.1875H11.5625V13.875ZM6.9375 23.125H9.25V25.4375H6.9375V23.125ZM11.5625 23.125H13.875V25.4375H11.5625V23.125ZM18.5 16.1875H16.1875V13.875H18.5V16.1875ZM23.125 16.1875H20.8125V13.875H23.125V16.1875ZM27.75 16.1875H25.4375V13.875H27.75V16.1875Z" fill="#699BF7"/>
</svg>
