<svg width="37" height="37" viewBox="0 0 37 37" fill="none" xmlns="http://www.w3.org/2000/svg">
<path d="M18.5 19.2708C17.0689 19.2708 15.6965 19.8393 14.6846 20.8512C13.6727 21.8632 13.1042 23.2356 13.1042 24.6667C13.1042 26.0977 13.6727 27.4702 14.6846 28.4821C15.6965 29.494 17.0689 30.0625 18.5 30.0625C19.9311 30.0625 21.3035 29.494 22.3154 28.4821C23.3273 27.4702 23.8958 26.0977 23.8958 24.6667C23.8958 23.2356 23.3273 21.8632 22.3154 20.8512C21.3035 19.8393 19.9311 19.2708 18.5 19.2708ZM16.1875 24.6667C16.1875 24.0534 16.4311 23.4652 16.8648 23.0315C17.2985 22.5978 17.8867 22.3542 18.5 22.3542C19.1133 22.3542 19.7015 22.5978 20.1352 23.0315C20.5689 23.4652 20.8125 24.0534 20.8125 24.6667C20.8125 25.28 20.5689 25.8682 20.1352 26.3019C19.7015 26.7355 19.1133 26.9792 18.5 26.9792C17.8867 26.9792 17.2985 26.7355 16.8648 26.3019C16.4311 25.8682 16.1875 25.28 16.1875 24.6667Z" fill="#699BF7"/>
<path d="M27.0192 7.88717L22.1183 1.01596L4.09775 15.412L3.09875 15.4013V15.4167H2.3125V33.9167H34.6875V15.4167H33.2044L30.2537 6.78488L27.0192 7.88717ZM29.9469 15.4167H14.487L26.0017 11.4916L28.3482 10.7408L29.9469 15.4167ZM23.9729 8.92625L12.0867 12.9778L21.5001 5.4575L23.9729 8.92625ZM5.39583 28.0105V21.3197C6.04625 21.0892 6.63704 20.7165 7.12511 20.2287C7.61319 19.7409 7.98624 19.1503 8.21708 18.5H28.7829C29.0137 19.1505 29.3867 19.7414 29.8747 20.2294C30.3628 20.7175 30.9536 21.0905 31.6042 21.3213V28.0121C30.9536 28.2428 30.3628 28.6158 29.8747 29.1039C29.3867 29.592 29.0137 30.1828 28.7829 30.8333H8.22017C7.9892 30.1823 7.61578 29.591 7.12716 29.1026C6.63853 28.6143 6.04704 28.2412 5.39583 28.0105Z" fill="#699BF7"/>
</svg>
