<svg width="37" height="37" viewBox="0 0 37 37" fill="none" xmlns="http://www.w3.org/2000/svg">
<g clip-path="url(#clip0_27_44)">
<path d="M3.10338 0C1.38442 0 0 1.43221 0 3.15117V30.5543L5.0135 12.7496H10.0733L9.40417 15.0852H9.50129C9.78804 14.7507 10.1688 14.4639 10.6452 14.1294C11.1231 13.7964 11.601 13.5096 12.1252 13.2229C12.6525 12.9361 13.2244 12.745 13.8457 12.5553C14.4655 12.3642 15.0868 12.3164 15.708 12.3164C17.0447 12.3164 18.1423 12.5538 19.0966 12.9839C20.0525 13.414 20.7678 14.0816 21.3398 14.894C21.8177 15.6094 22.1106 16.465 22.254 17.4671C22.2632 17.5596 22.2956 17.6752 22.2956 17.7585C22.3912 18.8561 22.2478 20.0987 21.8639 21.4353C21.5202 22.7 20.9902 23.9064 20.2914 25.0151C19.6105 26.1166 18.792 27.1268 17.8556 28.0213C16.9179 28.878 15.8553 29.587 14.7044 30.1242C13.5653 30.6415 12.3263 30.902 11.0753 30.8873C10.0337 30.8965 8.99878 30.719 8.01975 30.3631C7.11325 30.0286 6.4935 29.4073 6.11117 28.5486H6.01558L3.62754 37H33.8488C34.2628 37.0004 34.6727 36.9192 35.0552 36.761C35.4377 36.6027 35.7853 36.3706 36.078 36.078C36.3706 35.7853 36.6027 35.4377 36.761 35.0552C36.9192 34.6727 37.0004 34.2628 37 33.8488V7.25508C36.8566 7.20883 36.7133 7.16258 36.6177 7.11325C36.3354 7.05245 36.0477 7.02043 35.759 7.01767C34.9003 7.01767 34.1834 7.20883 33.6099 7.59117C33.0857 7.9735 32.6078 8.73663 32.2733 9.93142L31.4623 12.7465H34.5657L35.3288 15.1823L33.3247 17.1403H30.2198L26.4488 30.5065H21.0068L24.7777 17.1403H22.5345L23.7756 12.7465H25.9725L26.8312 9.59533C27.1164 8.64104 27.4525 7.68675 27.881 6.82804C28.2771 5.97084 28.8273 5.19377 29.5044 4.53558C30.172 3.8665 31.0307 3.34079 32.0343 2.96C33.0364 2.57767 34.3268 2.3865 35.8068 2.3865C36.1891 2.3865 36.5221 2.3865 36.9044 2.43429C36.7362 1.75683 36.3517 1.15268 35.8092 0.713409C35.2667 0.274134 34.5958 0.0236781 33.8982 0L3.10338 0ZM13.2244 17.1403C11.84 17.1403 10.6468 17.5688 9.64313 18.3813C8.64104 19.1922 7.9735 20.2914 7.59117 21.628C7.20883 22.9647 7.25663 24.0623 7.83013 24.8733C8.30804 25.732 9.26233 26.1143 10.6945 26.1143C12.079 26.1143 13.2722 25.6857 14.2743 24.8733C15.2764 24.0623 15.9933 22.9647 16.3756 21.628C16.7564 20.2914 16.6608 19.1922 16.1366 18.3813C15.6125 17.5688 14.6088 17.1403 13.2229 17.1403H13.2244Z" fill="#699BF7"/>
</g>
<defs>
<clipPath id="clip0_27_44">
<rect width="37" height="37" fill="white"/>
</clipPath>
</defs>
</svg>
