<svg width="31" height="31" viewBox="0 0 31 31" fill="none" xmlns="http://www.w3.org/2000/svg">
<path d="M20.5066 21.8363L23.0966 19.2463C23.4454 18.9017 23.8868 18.6659 24.367 18.5674C24.8473 18.4689 25.3459 18.5119 25.8022 18.6913L28.9588 19.9516C29.4199 20.1387 29.8153 20.4582 30.0951 20.8697C30.3749 21.2813 30.5267 21.7664 30.5313 22.2641V28.0453C30.5286 28.3838 30.4574 28.7183 30.322 29.0286C30.1867 29.3389 29.9899 29.6186 29.7436 29.8509C29.4973 30.0831 29.2066 30.2631 28.8889 30.3801C28.5712 30.497 28.2331 30.5484 27.895 30.5313C5.77594 29.1553 1.31281 10.4241 0.468752 3.25531C0.42957 2.90328 0.46537 2.54694 0.573795 2.20973C0.682221 1.87252 0.860816 1.56209 1.09783 1.29887C1.33484 1.03564 1.62491 0.825576 1.94893 0.6825C2.27296 0.539425 2.62361 0.466578 2.97781 0.468751H8.5625C9.06086 0.470227 9.54737 0.620761 9.95948 0.900992C10.3716 1.18122 10.6904 1.57834 10.875 2.04125L12.1353 5.19781C12.3206 5.6523 12.3679 6.15131 12.2712 6.6325C12.1746 7.1137 11.9383 7.55575 11.5919 7.90344L9.00188 10.4934C9.00188 10.4934 10.4934 20.5875 20.5066 21.8363Z" fill="#699BF7"/>
</svg>
