<svg width="41" height="37" viewBox="0 0 41 37" fill="none" xmlns="http://www.w3.org/2000/svg">
<path fill-rule="evenodd" clip-rule="evenodd" d="M20.5 33.5312C23.4241 33.5351 26.2973 32.841 28.8281 31.5194V26.5938C28.8281 25.2138 28.2207 23.8904 27.1394 22.9146C26.0581 21.9388 24.5916 21.3906 23.0625 21.3906H17.9375C16.4084 21.3906 14.9419 21.9388 13.8606 22.9146C12.7793 23.8904 12.1719 25.2138 12.1719 26.5938V31.5194C14.7027 32.841 17.5759 33.5351 20.5 33.5312ZM32.6719 26.5938V28.7606C34.8877 26.6199 36.3621 23.9416 36.9139 21.0549C37.4656 18.1682 37.0707 15.1989 35.7776 12.5121C34.4846 9.8252 32.3497 7.53785 29.6355 5.9312C26.9213 4.32455 23.746 3.46861 20.5 3.46861C17.254 3.46861 14.0787 4.32455 11.3645 5.9312C8.6503 7.53785 6.51544 9.8252 5.22237 12.5121C3.92931 15.1989 3.53438 18.1682 4.08615 21.0549C4.63791 23.9416 6.11232 26.6199 8.32812 28.7606V26.5938C8.3281 24.8059 8.94009 23.0617 10.0804 21.5997C11.2207 20.1377 12.8336 19.0293 14.6985 18.426C13.7309 17.4216 13.1038 16.1872 12.8921 14.8701C12.6804 13.5529 12.893 12.2086 13.5046 10.9975C14.1161 9.78641 15.1008 8.75962 16.3412 8.0396C17.5815 7.31959 19.0252 6.93675 20.5 6.93675C21.9748 6.93675 23.4185 7.31959 24.6588 8.0396C25.8992 8.75962 26.8839 9.78641 27.4954 10.9975C28.107 12.2086 28.3196 13.5529 28.1079 14.8701C27.8962 16.1872 27.2691 17.4216 26.3015 18.426C28.1664 19.0293 29.7793 20.1377 30.9196 21.5997C32.0599 23.0617 32.6719 24.8059 32.6719 26.5938ZM20.5 37C25.9369 37 31.1512 35.0509 34.9957 31.5815C38.8402 28.1121 41 23.4065 41 18.5C41 13.5935 38.8402 8.88795 34.9957 5.41852C31.1512 1.9491 25.9369 0 20.5 0C15.0631 0 9.84881 1.9491 6.00431 5.41852C2.15982 8.88795 0 13.5935 0 18.5C0 23.4065 2.15982 28.1121 6.00431 31.5815C9.84881 35.0509 15.0631 37 20.5 37ZM24.3438 13.875C24.3437 14.795 23.9388 15.6773 23.2179 16.3278C22.4971 16.9783 21.5194 17.3438 20.5 17.3438C19.4806 17.3438 18.5029 16.9783 17.7821 16.3278C17.0612 15.6773 16.6562 14.795 16.6562 13.875C16.6562 12.955 17.0612 12.0727 17.7821 11.4222C18.5029 10.7717 19.4806 10.4063 20.5 10.4062C21.5194 10.4062 22.4971 10.7717 23.2179 11.4222C23.9388 12.0727 24.3438 12.955 24.3438 13.875Z" fill="#699BF7"/>
</svg>
